<svg xmlns="http://www.w3.org/2000/svg"  viewBox="0 0 26 26" width="1600px" height="1600px"><path d="M 11.5625 0.0625 C 10.628906 0.0625 9.796875 0.53125 9.3125 1.25 C 9.0625 1.160156 8.8125 1.09375 8.53125 1.09375 C 7.203125 1.09375 6.125 2.171875 6.125 3.5 C 6.125 3.574219 6.148438 3.648438 6.15625 3.71875 C 5.734375 3.355469 5.164063 3.125 4.5625 3.125 C 3.234375 3.125 2.15625 4.234375 2.15625 5.5625 C 2.15625 5.777344 2.195313 5.957031 2.25 6.15625 C 1.058594 6.300781 0.125 7.332031 0.125 8.5625 C 0.125 9.890625 1.234375 10.96875 2.5625 10.96875 C 2.75 10.96875 2.917969 10.914063 3.09375 10.875 C 2.515625 11.398438 2.15625 12.15625 2.15625 13 C 2.15625 13.023438 2.15625 13.070313 2.15625 13.09375 C 0.996094 13.269531 0.09375 14.261719 0.09375 15.46875 C 0.09375 16.796875 1.167969 17.875 2.5 17.875 C 2.722656 17.875 2.953125 17.839844 3.15625 17.78125 C 3.308594 18.960938 4.308594 19.875 5.53125 19.875 C 6.394531 19.875 7.136719 19.402344 7.5625 18.71875 C 7.859375 18.804688 8.175781 18.875 8.5 18.875 C 9.601563 18.875 10.566406 18.339844 11.1875 17.53125 C 11.304688 18.703125 11.460938 20.003906 11.65625 21.53125 C 12.246094 26.179688 6.277344 24.058594 7.0625 26 L 18.90625 26 C 18.90625 24.609375 15.042969 26.175781 14.96875 22.8125 C 14.953125 22.125 14.953125 20.59375 14.9375 20.0625 C 12.839844 18.363281 12.964844 16.703125 12.96875 13.71875 C 13.632813 13.429688 14.210938 12.988281 14.625 12.40625 C 14.738281 12.492188 14.84375 12.554688 14.96875 12.625 C 14.425781 13.191406 14.09375 13.964844 14.09375 14.8125 C 14.09375 16.546875 15.511719 17.9375 17.25 17.9375 C 17.886719 17.9375 18.476563 17.761719 18.96875 17.4375 C 19.058594 17.445313 19.125 17.46875 19.21875 17.46875 C 19.246094 17.46875 19.285156 17.4375 19.3125 17.4375 C 19.691406 18.277344 20.523438 18.875 21.5 18.875 C 22.828125 18.875 23.90625 17.796875 23.90625 16.46875 C 23.90625 15.632813 23.488281 14.902344 22.84375 14.46875 C 22.875 14.300781 22.867188 14.113281 22.875 13.9375 C 24.011719 13.746094 24.90625 12.753906 24.90625 11.5625 C 24.90625 10.328125 23.976563 9.332031 22.78125 9.1875 C 22.625 8.007813 21.628906 7.09375 20.40625 7.09375 C 20.378906 7.09375 20.339844 7.125 20.3125 7.125 C 20.667969 6.703125 20.90625 6.15625 20.90625 5.5625 C 20.90625 4.234375 19.828125 3.15625 18.5 3.15625 C 17.851563 3.15625 17.246094 3.398438 16.8125 3.8125 C 16.519531 2.8125 15.628906 2.09375 14.53125 2.09375 C 14.417969 2.09375 14.296875 2.109375 14.1875 2.125 C 13.898438 0.945313 12.832031 0.0625 11.5625 0.0625 Z"/></svg>